<svg xmlns="http://www.w3.org/2000/svg" viewBox="0 0 200 29"><defs><style>.cls-2{fill:#9b2321}</style></defs><g id="Warstwa_2" data-name="Warstwa 2"><g id="Warstwa_1-2" data-name="Warstwa 1"><path fill="none" d="M0 0h200v29H0z"/><path class="cls-2" d="M41.27 4.16L41.8.47H29.21l-1.69 12.16H0v4.76h32.3l1.01-6.89h6.38l.53-3.69h-6.9l.4-2.65h7.55zm13.52 5.69a5.52 5.52 0 004.58-5.08A5.11 5.11 0 0057 .47H44.67L42.22 17.4h5.47c.26-2 .61-4.41 1-6.9a2.83 2.83 0 012.12 1.62c.3.47 1.55 3.92 2.07 5.26H59v-1.05a12.55 12.55 0 00-1.69-3.7 10.71 10.71 0 00-2.52-2.78zM52 7h-3l.43-3h3.33a1.61 1.61 0 01.75 1.34A1.65 1.65 0 0152 7zm92.82 3.58c2.42-.68 3.41-3.31 3.41-5.81a5.11 5.11 0 00-2.4-4.3h-11L132.3 17.4h5.4c.3-2.31.69-4.78.91-6.35 2.63-.05 4.21.09 6.21-.47zM142 7.25h-2.72l.46-3.15h2A1.35 1.35 0 01143 5.29a2.11 2.11 0 010 .25 1.6 1.6 0 01-1 1.71z"/><path class="cls-2" d="M72.5.45h-5.87L59 16.33v1.05h5.45l1.12-2.68h5.28l.52 2.68h5.85zM67.18 10.5l1.88-4.77.78 4.77zm11.11 6.89h5.3l1.09-8 4.74 8h5.02L96.89.45h-5.45l-1.21 8.47L85.18.45h-4.41l-2.48 16.94zm51.55 0h-13.93L118.39.47l13.36-.02-.54 3.69h-8.17l-.34 2.64h7.46l-.55 3.77h-7.47l-.45 2.58h8.77l-.62 4.26zm38.39-.39H200v-4.01h-25.36L175.67.45h-5.3L168.23 17zM161.5.48c-4.21-1.61-9 1-10.78 5.74-1.63 4.45 0 9.24 3.63 11.18h7A9.63 9.63 0 00166 12c1.71-4.74-.28-9.91-4.5-11.52zm-.18 10c-.73 2.29-2.65 3.55-4.3 2.82s-2.39-3.18-1.66-5.47S158 4.25 159.66 5s2.39 3.16 1.66 5.45zm-51.72-.21l-.06.18c-.72 2.29-2.65 3.55-4.3 2.82s-2.39-3.18-1.66-5.47 2.66-3.55 4.3-2.82a3.33 3.33 0 011.73 2.16l4.91-1a8 8 0 00-4.79-5.66c-4.22-1.61-9 1-10.79 5.74-1.63 4.45 0 9.24 3.63 11.18h7a9.63 9.63 0 004.62-5.4c0-.08 0-.16.07-.23z"/></g></g></svg>